<?xml version="1.0" encoding="UTF-8" standalone="no"?>
<svg
   version="1.1"
   width="775"
   height="275"
   viewBox="0 0 775 275"
   id="svg12"
   sodipodi:docname="logo.svg"
   inkscape:version="1.2.2 (b0a8486541, 2022-12-01)"
   xmlns:inkscape="http://www.inkscape.org/namespaces/inkscape"
   xmlns:sodipodi="http://sodipodi.sourceforge.net/DTD/sodipodi-0.dtd"
   xmlns="http://www.w3.org/2000/svg"
   xmlns:svg="http://www.w3.org/2000/svg">
  <defs
     id="defs16" />
  <sodipodi:namedview
     id="namedview14"
     pagecolor="#ffffff"
     bordercolor="#000000"
     borderopacity="0.25"
     inkscape:showpageshadow="2"
     inkscape:pageopacity="0.0"
     inkscape:pagecheckerboard="0"
     inkscape:deskcolor="#d1d1d1"
     showgrid="false"
     inkscape:zoom="0.39333333"
     inkscape:cx="444.91525"
     inkscape:cy="301.27119"
     inkscape:window-width="1600"
     inkscape:window-height="830"
     inkscape:window-x="0"
     inkscape:window-y="0"
     inkscape:window-maximized="1"
     inkscape:current-layer="svg12" />
  <g
     id="g859"
     transform="matrix(1,0,0,1.009846,-112.5,-165.4538)">
    <path
       id="circle4"
       style="fill:#c5fad5;fill-opacity:1;stroke-width:0.742688"
       d="M 248.78125,176.21875 A 123.78133,123.78133 0 0 0 125,300 123.78133,123.78133 0 0 0 248.78125,423.78125 123.78133,123.78133 0 0 0 372.5625,300 123.78133,123.78133 0 0 0 248.78125,176.21875 Z m -45.87891,68.08008 h 57.4961 c 6.3908,0 11.90819,1.10399 16.55468,3.31445 4.66153,2.22551 8.2634,5.33995 10.80469,9.33984 2.54129,4.01493 3.8125,8.78018 3.8125,14.29883 0,4.22545 -0.75213,8.11978 -2.25586,11.6836 -1.51875,3.57885 -3.63119,6.55771 -6.33789,8.93359 -2.70669,2.39092 -5.79789,4.17925 -9.27148,5.36719 v 0.65429 c 3.90967,0.85712 7.4289,2.4292 10.55664,4.71485 3.14278,2.27062 5.66195,5.27077 7.55664,9 1.89469,3.74426 2.8418,8.32293 2.8418,13.73633 0,7.24792 -1.51072,13.08942 -4.53321,17.52539 -3.03751,4.43597 -7.09906,7.68404 -12.18164,9.74414 -5.09761,2.0601 -10.94555,3.08984 -17.54687,3.08984 h -57.4961 z m 15.42774,13.30664 v 34.44336 h 39.13476 c 3.68412,0 6.87925,-0.73729 9.58594,-2.21094 2.7067,-1.4586 4.85078,-3.5097 6.42969,-6.15625 1.56386,-2.66158 2.3457,-5.67015 2.3457,-9.02344 0,-5.84947 -1.57207,-10.15053 -4.71484,-12.90234 -3.14278,-2.76684 -7.30826,-4.15039 -12.4961,-4.15039 z m 0,47.59375 v 37.19531 h 41.91015 c 5.51866,0 10.00629,-1.43649 13.46485,-4.30859 3.47359,-2.87211 5.21094,-7.66255 5.21094,-14.36914 0,-4.12019 -0.75859,-7.56324 -2.27735,-10.33008 -1.51875,-2.75181 -3.73708,-4.80485 -6.65429,-6.1582 -2.93226,-1.35336 -6.61676,-2.0293 -11.05274,-2.0293 z" />
    <path
       d="m 456.01858,335.84789 v 0 q -5.049,0 -7.87302,-1.89978 -2.84113,-1.91692 -4.07343,-5.04901 -1.2323,-3.14921 -1.2323,-6.72629 v 0 -43.48986 h -8.38647 v -9.12243 h 8.62609 l 1.98537,-18.12506 h 8.62609 v 18.12506 h 12.18606 v 9.12243 h -12.18606 v 41.89814 q 0,3.08074 1.09537,4.62111 1.1125,1.54038 4.19324,1.54038 v 0 h 6.89745 v 7.13706 q -1.2323,0.61615 -2.94382,0.99269 -1.72865,0.35941 -3.52575,0.66749 -1.77999,0.30807 -3.38882,0.30807 z m 32.29649,-1.47191 h -10.85108 v -64.81546 h 8.7459 l 0.99268,10.71414 h 0.85577 q 0.99269,-3.08074 2.72132,-5.85341 1.72864,-2.77267 4.67247,-4.55266 2.96094,-1.7971 7.27398,-1.7971 v 0 q 1.84845,0 3.38882,0.30807 1.54038,0.30808 2.27633,0.68461 v 0 9.97819 h -4.05632 q -4.19324,0 -7.20552,1.42057 -3.02939,1.42057 -4.99765,4.00497 -1.96826,2.5844 -2.89248,6.16149 -0.92422,3.57709 -0.92422,7.6334 v 0 z m 43.48986,0 h -10.83395 v -55.69303 h -9.61878 v -9.12243 h 9.61878 v -10.35474 q 0,-3.8167 1.11248,-7.20552 1.09538,-3.38882 4.17612,-5.54534 3.08075,-2.15652 8.62609,-2.15652 v 0 q 1.72865,0 3.38882,0.18827 1.6773,0.17115 3.21767,0.47922 1.54038,0.30808 2.77267,0.68461 v 0 7.77033 h -6.53803 q -3.08074,0 -4.5013,1.54037 -1.42057,1.54037 -1.42057,4.36439 v 0 10.23493 h 12.4599 v 9.12243 h -12.4599 z m 43.74659,1.47191 v 0 q -6.64072,0 -11.70684,-1.3521 -5.049,-1.35211 -8.36936,-3.93651 -3.33747,-2.5844 -5.049,-6.16149 -1.72863,-3.57709 -1.72863,-8.12974 v 0 q 0,-0.61615 0,-1.18096 0,-0.54769 0.1198,-0.92422 v 0 h 10.71415 q -0.1198,0.49634 -0.1198,0.87288 0,0.35941 0,0.73595 v 0 q 0.1198,4.31304 2.27632,6.77764 2.15652,2.4646 5.99034,3.44017 3.8167,0.99268 8.48917,0.99268 v 0 q 4.07343,0 7.53071,-1.04403 3.44017,-1.04403 5.47688,-3.20055 2.03672,-2.15652 2.03672,-5.494 v 0 q 0,-4.05632 -2.65287,-6.21284 -2.65286,-2.15652 -6.96591,-3.38881 -4.31304,-1.2323 -8.98551,-2.60152 v 0 q -3.95362,-1.09538 -7.89013,-2.4646 -3.95362,-1.35211 -7.08572,-3.32036 -3.1492,-1.96825 -5.04899,-5.11746 -1.91691,-3.13209 -1.91691,-7.94148 v 0 q 0,-4.31304 1.77999,-7.65052 1.7971,-3.32036 5.11745,-5.66515 3.33748,-2.34479 8.07841,-3.50862 4.74092,-1.16384 10.52588,-1.16384 v 0 q 6.16149,0 10.78261,1.35211 4.62112,1.3521 7.70186,3.81669 3.08075,2.46461 4.56978,5.61381 1.47191,3.13209 1.47191,6.70918 v 0 q 0,0.73596 0,1.42057 0,0.66749 -0.11981,1.04402 v 0 h -10.59434 v -1.3521 q 0,-2.46459 -1.30076,-4.74093 -1.28365,-2.29344 -4.43285,-3.69689 -3.14921,-1.42057 -8.69455,-1.42057 v 0 q -3.55997,0 -6.16149,0.54769 -2.58441,0.56481 -4.31305,1.72864 -1.71153,1.16384 -2.5844,2.70421 -0.85576,1.54037 -0.85576,3.52574 v 0 q 0,3.20056 2.08806,4.9292 2.10518,1.71153 5.6138,2.82401 3.50863,1.1125 7.58206,2.46461 v 0 q 4.31305,1.23229 8.79724,2.53305 4.50131,1.28364 8.26667,3.26902 3.74824,1.96825 6.04168,5.35707 2.27633,3.38882 2.27633,8.93416 v 0 q 0,5.16881 -1.96825,8.98551 -1.98537,3.83382 -5.6138,6.29842 -3.62844,2.46459 -8.50628,3.62843 -4.86074,1.16383 -10.66281,1.16383 z m 51.02057,-1.47191 h -10.83396 v -64.81546 h 8.7459 l 0.97557,9.73858 h 0.87288 q 2.5844,-3.95363 5.85341,-6.41823 3.26902,-2.46459 7.27399,-3.62843 4.00497,-1.18095 8.55763,-1.18095 v 0 q 6.16149,0 10.78261,2.10518 4.62112,2.08806 7.27398,6.77763 2.65286,4.67247 2.65286,12.68241 v 0 44.73927 H 657.8759 v -43.25025 q 0,-4.07343 -1.04404,-6.65783 -1.04403,-2.5844 -2.84113,-4.07343 -1.77998,-1.47191 -4.31304,-2.08806 -2.51594,-0.61615 -5.59669,-0.61615 v 0 q -4.56977,0 -8.62609,2.22498 -4.07343,2.20787 -6.46957,6.40111 -2.41325,4.19323 -2.41325,9.97819 v 0 z m 74.81078,1.47191 v 0 q -3.57709,0 -7.15418,-0.85576 -3.57708,-0.85576 -6.65783,-2.84113 -3.08075,-1.96826 -4.92919,-5.47689 -1.84845,-3.50862 -1.84845,-8.81435 v 0 q 0,-6.65783 3.20055,-10.97088 3.21767,-4.31304 8.93416,-6.70918 5.73361,-2.39613 13.62374,-3.32036 7.89014,-0.92422 17.13238,-0.92422 v 0 -7.39379 q 0,-3.57709 -1.2323,-6.16149 -1.2323,-2.60152 -4.38151,-4.00497 -3.13209,-1.42057 -8.93416,-1.42057 v 0 q -5.54534,0 -8.81436,1.42057 -3.25189,1.40345 -4.55265,3.62843 -1.30077,2.22499 -1.30077,4.92919 v 0 1.84846 h -10.47453 q -0.11981,-0.61616 -0.11981,-1.23231 0,-0.61615 0,-1.47191 v 0 q 0,-5.92187 3.26902,-9.92684 3.26901,-4.00497 9.17378,-6.04168 5.92187,-2.03672 13.55528,-2.03672 v 0 q 8.14686,0 13.62374,2.34479 5.47688,2.34478 8.24955,6.65783 2.77268,4.31305 2.77268,10.35473 v 0 35.1205 q 0,2.34479 1.11248,3.26901 1.1125,0.92423 2.72133,0.92423 v 0 h 4.79225 v 7.13706 q -1.7115,0.73596 -3.81668,1.30076 -2.08806,0.54769 -4.80938,0.54769 v 0 q -3.20056,0 -5.28862,-1.28365 -2.10518,-1.30076 -3.20055,-3.57709 -1.1125,-2.27632 -1.48903,-5.11746 v 0 h -0.85576 q -2.22499,3.08075 -5.61381,5.35708 -3.38881,2.27633 -7.58205,3.50863 -4.17613,1.23229 -9.10532,1.23229 z m 2.70421,-9.10531 v 0 q 3.93651,0 7.46225,-1.2323 3.50863,-1.2323 6.21284,-3.52574 2.72132,-2.27633 4.31304,-5.47688 1.60884,-3.20055 1.60884,-7.01726 v 0 -5.42553 q -9.9782,0 -17.01257,1.11249 -7.01725,1.09538 -10.78261,3.93651 -3.74824,2.84113 -3.74824,8.00994 v 0 q 0,3.32036 1.47191,5.42553 1.47192,2.08806 4.19324,3.13209 2.70421,1.06115 6.2813,1.06115 z m 59.03055,28.95901 h -10.85112 v -86.14107 h 8.6261 l 1.11247,9.24223 h 0.8558 q 3.33749,-5.42554 8.50623,-8.0784 5.18597,-2.65286 11.70684,-2.65286 v 0 q 8.12976,0 13.81207,3.57709 5.66515,3.57708 8.74589,11.15914 3.08075,7.58206 3.08075,19.64831 v 0 q 0,11.34741 -3.14922,18.79256 -3.13214,7.46224 -8.81437,11.03933 -5.66515,3.55997 -13.17878,3.55997 v 0 q -4.19322,0 -7.89009,-0.97556 -3.69688,-0.99269 -6.65783,-3.14921 -2.94387,-2.15652 -5.16881,-5.47688 v 0 h -0.73593 z m 16.99545,-29.33555 v 0 q 6.04162,0 9.85836,-2.39613 3.83383,-2.41325 5.68224,-7.53071 1.84847,-5.10035 1.84847,-13.11029 v 0 -2.60152 q 0,-8.48916 -1.98535,-13.60662 -1.96827,-5.11747 -5.71655,-7.34245 -3.76535,-2.20787 -9.3107,-2.20787 v 0 q -6.04162,0 -9.92685,2.65287 -3.86799,2.63575 -5.66515,7.94147 -1.77992,5.30574 -1.77992,12.93913 v 0 1.84846 q 0,6.77764 1.28359,11.27895 1.30074,4.50131 3.69695,7.20552 2.41321,2.70421 5.49396,3.8167 3.08074,1.11249 6.52095,1.11249 z m 64.07949,9.48185 v 0 q -8.00997,0 -13.72643,-3.55997 -5.73363,-3.57709 -8.88285,-11.15914 -3.13206,-7.58206 -3.13206,-19.64831 v 0 q 0,-11.46722 3.20054,-18.86102 3.20054,-7.39379 8.86568,-10.97087 5.66515,-3.57709 13.19586,-3.57709 v 0 q 4.31309,0 8.00997,0.99268 3.69687,0.99269 6.58935,3.08075 2.89247,2.08806 5.11749,5.54534 v 0 h 0.73593 v -32.41629 h 10.83396 v 89.10201 h -8.74589 l -0.9756,-9.24224 h -0.87288 q -3.32034,5.42554 -8.62602,8.07841 -5.28869,2.63574 -11.58705,2.63574 z m 2.60149,-9.48185 v 0 q 6.16148,0 9.97823,-2.70421 3.81668,-2.72132 5.59668,-7.89013 1.79708,-5.18592 1.79708,-12.81932 v 0 -1.96826 q 0,-6.65783 -1.35207,-11.21049 -1.36921,-4.56977 -3.69695,-7.27398 -2.34474,-2.72133 -5.42548,-3.8167 -3.08075,-1.1125 -6.53803,-1.1125 v 0 q -6.0417,0 -9.85844,2.39614 -3.81668,2.41325 -5.66515,7.51359 -1.8484,5.11746 -1.8484,13.24721 v 0 2.60152 q 0,8.36936 1.96827,13.48682 1.96819,5.11747 5.73355,7.32533 3.76535,2.22498 9.31071,2.22498 z"
       fill="#c5fad5"
       id="path8"
       style="stroke-width:0.742688" />
  </g>
</svg>
