<?xml version="1.0" encoding="UTF-8" standalone="no"?>
<svg
   version="1.1"
   width="775"
   height="205"
   viewBox="0 0 775 205"
   id="svg12"
   sodipodi:docname="logo.svg"
   inkscape:version="1.2.2 (b0a8486541, 2022-12-01)"
   xmlns:inkscape="http://www.inkscape.org/namespaces/inkscape"
   xmlns:sodipodi="http://sodipodi.sourceforge.net/DTD/sodipodi-0.dtd"
   xmlns="http://www.w3.org/2000/svg"
   xmlns:svg="http://www.w3.org/2000/svg">
  <defs
     id="defs16" />
  <sodipodi:namedview
     id="namedview14"
     pagecolor="#ffffff"
     bordercolor="#000000"
     borderopacity="0.25"
     inkscape:showpageshadow="2"
     inkscape:pageopacity="0.0"
     inkscape:pagecheckerboard="0"
     inkscape:deskcolor="#d1d1d1"
     showgrid="false"
     inkscape:zoom="0.39333333"
     inkscape:cx="444.91525"
     inkscape:cy="301.27119"
     inkscape:window-width="1600"
     inkscape:window-height="830"
     inkscape:window-x="0"
     inkscape:window-y="0"
     inkscape:window-maximized="1"
     inkscape:current-layer="svg12" />
  <g
     id="g10"
     transform="matrix(1,0,0,0.99708026,-112.50001,-196.62409)">
    <circle
       r="166.66667"
       cx="397.47229"
       cy="419.69455"
       fill="#87deaa"
       transform="matrix(0.54158126,0,0,0.54158126,0,72.701312)"
       id="circle4" />
    <path
       d="m 413.11311,494.69455 h -77.41446 v -150 h 77.41446 q 12.90747,0 22.29196,4.46447 9.41486,4.49484 14.54748,12.57339 5.13262,8.10893 5.13262,19.25491 v 0 q 0,8.53412 -3.03705,15.73193 -3.06742,7.22819 -8.53412,12.02673 -5.46669,4.82891 -12.48228,7.22818 v 0 0.88075 q 7.89633,1.73112 14.2134,6.34744 6.34744,4.58595 10.17413,12.11784 3.82668,7.56226 3.82668,18.49564 v 0 q 0,14.63859 -6.10447,23.5979 -6.13485,8.9593 -16.40008,13.12006 -10.29561,4.16076 -23.62827,4.16076 z m -56.64102,-67.99959 v 50.08099 h 56.42843 q 11.14598,0 18.1312,-5.80077 7.01559,-5.80077 7.01559,-19.34602 v 0 q 0,-8.32153 -3.06742,-13.9097 -3.06743,-5.55781 -8.95931,-8.29115 -5.92225,-2.73335 -14.88155,-2.73335 v 0 z m 0,-64.0818 v 46.37579 h 52.69285 q 7.44078,0 12.90747,-2.97632 5.4667,-2.94594 8.6556,-8.29115 3.15854,-5.37558 3.15854,-12.14821 v 0 q 0,-11.81413 -6.34744,-17.37193 -6.34744,-5.58818 -16.82527,-5.58818 v 0 z"
       fill="#d5ffe6"
       transform="matrix(0.54158126,0,0,0.54158126,0,72.701312)"
       id="path6" />
    <path
       d="m 676.50901,467.96233 v 0 q -6.79828,0 -10.60071,-2.558 -3.82547,-2.58104 -5.48471,-6.79828 -1.65924,-4.24028 -1.65924,-9.05669 v 0 -58.55738 h -11.29206 v -12.28299 h 11.61469 l 2.67322,-24.40467 h 11.61468 v 24.40467 h 16.40805 v 12.28299 h -16.40805 v 56.4142 q 0,4.1481 1.47489,6.22215 1.49792,2.07405 5.64602,2.07405 v 0 h 9.28714 v 9.60977 q -1.65924,0.82962 -3.96374,1.33661 -2.32754,0.48395 -4.74727,0.89876 -2.39668,0.41481 -4.56291,0.41481 z m 43.48594,-1.98187 h -14.61054 v -87.27147 h 11.776 l 1.33661,14.42618 h 1.15225 q 1.33661,-4.1481 3.66416,-7.88139 2.32754,-3.7333 6.29129,-6.12998 3.98678,-2.41972 9.79413,-2.41972 v 0 q 2.48886,0 4.56291,0.41481 2.07405,0.41481 3.06499,0.9218 v 0 13.43524 h -5.46167 q -5.64603,0 -9.70195,1.91274 -4.07897,1.91273 -6.72915,5.39253 -2.65017,3.4798 -3.8946,8.2962 -1.24443,4.81641 -1.24443,10.27808 v 0 z m 58.55738,0 h -14.5875 v -74.98848 h -12.9513 v -12.28299 h 12.9513 v -13.94223 q 0,-5.13904 1.49793,-9.70195 1.47488,-4.56291 5.62298,-7.46659 4.1481,-2.90367 11.61469,-2.90367 v 0 q 2.32754,0 4.56291,0.2535 2.25841,0.23045 4.33246,0.64526 2.07405,0.41481 3.73329,0.9218 v 0 10.46244 h -8.80319 q -4.1481,0 -6.06084,2.07405 -1.91273,2.07405 -1.91273,5.87647 v 0 13.78092 h 16.77676 v 12.28299 h -16.77676 z m 58.90305,1.98187 v 0 q -8.94147,0 -15.76279,-1.82056 -6.79828,-1.82055 -11.26901,-5.30035 -4.49378,-3.4798 -6.79828,-8.29621 -2.32755,-4.8164 -2.32755,-10.94638 v 0 q 0,-0.82962 0,-1.5901 0,-0.73744 0.16132,-1.24443 v 0 h 14.42618 q -0.16132,0.6683 -0.16132,1.17529 0,0.48395 0,0.99094 v 0 q 0.16132,5.80734 3.06499,9.12582 2.90367,3.31849 8.06575,4.63205 5.13904,1.33661 11.43033,1.33661 v 0 q 5.48471,0 10.13981,-1.40574 4.63204,-1.40575 7.3744,-4.30942 2.74236,-2.90367 2.74236,-7.39745 v 0 q 0,-5.46167 -3.57198,-8.36534 -3.57198,-2.90367 -9.37932,-4.56291 -5.80734,-1.65924 -12.09863,-3.50285 v 0 q -5.3234,-1.47488 -10.62375,-3.31848 -5.3234,-1.82055 -9.54064,-4.47073 -4.24028,-2.65018 -6.79828,-6.89046 -2.58104,-4.21724 -2.58104,-10.69288 v 0 q 0,-5.80735 2.39668,-10.30113 2.41973,-4.47073 6.89046,-7.62789 4.49378,-3.15717 10.87725,-4.72423 6.38346,-1.56706 14.17268,-1.56706 v 0 q 8.2962,0 14.51836,1.82055 6.22215,1.82056 10.37025,5.13904 4.14811,3.31848 6.15302,7.55876 1.98187,4.21724 1.98187,9.03365 v 0 q 0,0.99094 0,1.91274 0,0.89875 -0.16131,1.40574 v 0 h -14.26487 v -1.82055 q 0,-3.31849 -1.75142,-6.38347 -1.72837,-3.08803 -5.96865,-4.97773 -4.24029,-1.91273 -11.70687,-1.91273 v 0 q -4.79336,0 -8.29621,0.73744 -3.47979,0.76048 -5.80734,2.32755 -2.3045,1.56706 -3.4798,3.64111 -1.15225,2.07405 -1.15225,4.74727 v 0 q 0,4.30942 2.81149,6.63696 2.83454,2.3045 7.55877,3.80243 4.72423,1.49793 10.20894,3.31848 v 0 q 5.80734,1.65924 11.84514,3.41066 6.06084,1.72838 11.13074,4.4016 5.04686,2.65018 8.13489,7.21309 3.06498,4.56291 3.06498,12.0295 v 0 q 0,6.95959 -2.65017,12.09863 -2.67322,5.16208 -7.55877,8.48056 -4.88554,3.31849 -11.45337,4.88555 -6.54478,1.56706 -14.35704,1.56706 z m 91.25825,-39.47611 h -41.96497 v -14.77185 h 41.96497 z m 48.62498,39.47611 v 0 q -8.96451,0 -15.76279,-1.82056 -6.79828,-1.82055 -11.29206,-5.30035 -4.47073,-3.4798 -6.79828,-8.29621 -2.32754,-4.8164 -2.32754,-10.94638 v 0 q 0,-0.82962 0,-1.5901 0,-0.73744 0.18436,-1.24443 v 0 h 14.42618 q -0.16132,0.6683 -0.16132,1.17529 0,0.48395 0,0.99094 v 0 q 0.16132,5.80734 3.06499,9.12582 2.90367,3.31849 8.04271,4.63205 5.13904,1.33661 11.45337,1.33661 v 0 q 5.48471,0 10.11676,-1.40574 4.65509,-1.40575 7.39745,-4.30942 2.71931,-2.90367 2.71931,-7.39745 v 0 q 0,-5.46167 -3.54893,-8.36534 -3.57198,-2.90367 -9.37932,-4.56291 -5.80734,-1.65924 -12.12168,-3.50285 v 0 q -5.30035,-1.47488 -10.62375,-3.31848 -5.30035,-1.82055 -9.54063,-4.47073 -4.21724,-2.65018 -6.79828,-6.89046 -2.558,-4.21724 -2.558,-10.69288 v 0 q 0,-5.80735 2.39668,-10.30113 2.39668,-4.47073 6.89046,-7.62789 4.47073,-3.15717 10.8542,-4.72423 6.40651,-1.56706 14.19573,-1.56706 v 0 q 8.2962,0 14.51836,1.82055 6.22215,1.82056 10.37021,5.13904 4.1481,3.31848 6.13,7.55876 2.0049,4.21724 2.0049,9.03365 v 0 q 0,0.99094 0,1.91274 0,0.89875 -0.1613,1.40574 v 0 h -14.28789 v -1.82055 q 0,-3.31849 -1.72838,-6.38347 -1.75142,-3.08803 -5.96865,-4.97773 -4.24029,-1.91273 -11.70687,-1.91273 v 0 q -4.81641,0 -8.29621,0.73744 -3.47979,0.76048 -5.80734,2.32755 -2.32755,1.56706 -3.4798,3.64111 -1.17529,2.07405 -1.17529,4.74727 v 0 q 0,4.30942 2.83453,6.63696 2.8115,2.3045 7.53572,3.80243 4.74728,1.49793 10.20894,3.31848 v 0 q 5.80735,1.65924 11.86819,3.41066 6.06084,1.72838 11.10765,4.4016 5.0699,2.65018 8.1349,7.21309 3.065,4.56291 3.065,12.0295 v 0 q 0,6.95959 -2.6502,12.09863 -2.6501,5.16208 -7.5357,8.48056 -4.90856,3.31849 -11.45335,4.88555 -6.56783,1.56706 -14.35704,1.56706 z m 68.69719,-1.98187 h -14.6105 v -87.27147 h 11.776 l 1.3366,13.11262 h 1.1522 q 3.5029,-5.3234 7.8814,-8.64188 4.4016,-3.31849 9.7941,-4.88555 5.3926,-1.5901 11.5456,-1.5901 v 0 q 8.2962,0 14.5184,2.83453 6.2221,2.81149 9.771,9.12583 3.572,6.29129 3.572,17.07635 v 0 60.23967 h -14.5875 v -58.23475 q 0,-5.48471 -1.4288,-8.96451 -1.4057,-3.4798 -3.8024,-5.48471 -2.4197,-1.98188 -5.8073,-2.8115 -3.4107,-0.82962 -7.5588,-0.82962 v 0 q -6.13,0 -11.6147,2.99586 -5.4617,2.9728 -8.711,8.61883 -3.2263,5.64603 -3.2263,13.43524 v 0 z m 100.7067,1.98187 v 0 q -4.8164,0 -9.6098,-1.15225 -4.8164,-1.15225 -8.9645,-3.82547 -4.1481,-2.65018 -6.6369,-7.37441 -2.4889,-4.72423 -2.4889,-11.86818 v 0 q 0,-8.96451 4.3094,-14.77185 4.3094,-5.80735 12.0295,-9.03365 7.7201,-3.2263 18.3438,-4.47073 10.6007,-1.24443 23.0451,-1.24443 v 0 -9.95545 q 0,-4.81641 -1.6593,-8.2962 -1.6592,-3.50284 -5.8765,-5.39254 -4.2402,-1.91273 -12.0295,-1.91273 v 0 q -7.4665,0 -11.8681,1.91273 -4.4016,1.8897 -6.13,4.88555 -1.7514,2.99585 -1.7514,6.63696 v 0 2.48886 h -14.1036 q -0.1613,-0.82962 -0.1613,-1.65924 0,-0.82962 0,-1.98187 v 0 q 0,-7.97357 4.4016,-13.36611 4.3785,-5.39253 12.3521,-8.13489 7.9736,-2.74235 18.2517,-2.74235 v 0 q 10.9464,0 18.3438,3.15716 7.3744,3.15717 11.1077,8.96451 3.7333,5.80735 3.7333,13.94224 v 0 47.28836 q 0,3.15717 1.4979,4.4016 1.4979,1.24443 3.6411,1.24443 v 0 h 6.4757 v 9.60977 q -2.3276,0.99094 -5.1391,1.75142 -2.8345,0.73744 -6.4756,0.73744 v 0 q -4.3094,0 -7.144,-1.72837 -2.8115,-1.75142 -4.3094,-4.81641 -1.4979,-3.06499 -1.9819,-6.89046 v 0 h -1.1752 q -2.9729,4.1481 -7.5358,7.21309 -4.5629,3.06499 -10.2089,4.72423 -5.646,1.65924 -12.283,1.65924 z m 3.6642,-12.25995 v 0 q 5.3003,0 10.0245,-1.65924 4.7243,-1.65924 8.3884,-4.74727 3.6411,-3.06499 5.8074,-7.37441 2.1432,-4.30941 2.1432,-9.44845 v 0 -7.30527 q -13.4353,0 -22.8837,1.49793 -9.4715,1.47488 -14.5184,5.30035 -5.0699,3.82547 -5.0699,10.78506 v 0 q 0,4.47074 2.0049,7.30527 1.9819,2.8115 5.623,4.21724 3.6642,1.42879 8.4806,1.42879 z m 79.4592,38.99216 h -14.5875 V 378.70899 h 11.6147 l 1.4979,12.44431 h 1.1522 q 4.4708,-7.30527 11.4534,-10.87725 6.9596,-3.57197 15.7628,-3.57197 v 0 q 10.9464,0 18.5743,4.8164 7.6279,4.81641 11.776,15.02535 4.1481,10.20894 4.1481,26.45568 v 0 q 0,15.27884 -4.2173,25.30342 -4.2402,10.04763 -11.8681,14.86404 -7.6279,4.79336 -17.7447,4.79336 v 0 q -5.646,0 -10.6238,-1.31357 -4.9777,-1.33661 -8.9645,-4.24028 -3.9867,-2.90367 -6.9596,-7.3744 v 0 h -1.0139 z m 22.9067,-39.49915 v 0 q 8.1349,0 13.2739,-3.2263 5.1391,-3.24935 7.6279,-10.13981 2.4889,-6.86741 2.4889,-17.65248 v 0 -3.50284 q 0,-11.43032 -2.6502,-18.32078 -2.6502,-6.89046 -7.7201,-9.88631 -5.0468,-2.97281 -12.5134,-2.97281 v 0 q -8.1349,0 -13.3661,3.57198 -5.2312,3.54893 -7.6279,10.69288 -2.4197,7.14396 -2.4197,17.42203 v 0 2.48886 q 0,9.12583 1.7514,15.18667 1.7514,6.06084 4.9777,9.70195 3.2263,3.64111 7.3744,5.13904 4.1481,1.49792 8.8032,1.49792 z m 87.1102,12.76694 v 0 q -8.9646,0 -15.7628,-1.82056 -6.7983,-1.82055 -11.2921,-5.30035 -4.4707,-3.4798 -6.7983,-8.29621 -2.3275,-4.8164 -2.3275,-10.94638 v 0 q 0,-0.82962 0,-1.5901 0,-0.73744 0.1843,-1.24443 v 0 h 14.4262 q -0.1613,0.6683 -0.1613,1.17529 0,0.48395 0,0.99094 v 0 q 0.1613,5.80734 3.065,9.12582 2.9037,3.31849 8.0427,4.63205 5.139,1.33661 11.4534,1.33661 v 0 q 5.4847,0 10.1167,-1.40574 4.6551,-1.40575 7.3975,-4.30942 2.7193,-2.90367 2.7193,-7.39745 v 0 q 0,-5.46167 -3.5489,-8.36534 -3.572,-2.90367 -9.3794,-4.56291 -5.8073,-1.65924 -12.1216,-3.50285 v 0 q -5.3004,-1.47488 -10.6238,-3.31848 -5.3003,-1.82055 -9.5406,-4.47073 -4.2173,-2.65018 -6.7983,-6.89046 -2.558,-4.21724 -2.558,-10.69288 v 0 q 0,-5.80735 2.3967,-10.30113 2.3967,-4.47073 6.8904,-7.62789 4.4708,-3.15717 10.8542,-4.72423 6.4066,-1.56706 14.1958,-1.56706 v 0 q 8.2962,0 14.5183,1.82055 6.2222,1.82056 10.3703,5.13904 4.1481,3.31848 6.13,7.55876 2.0049,4.21724 2.0049,9.03365 v 0 q 0,0.99094 0,1.91274 0,0.89875 -0.1613,1.40574 v 0 h -14.2879 v -1.82055 q 0,-3.31849 -1.7284,-6.38347 -1.7514,-3.08803 -5.9687,-4.97773 -4.2403,-1.91273 -11.7068,-1.91273 v 0 q -4.8165,0 -8.2962,0.73744 -3.4798,0.76048 -5.8074,2.32755 -2.3275,1.56706 -3.4798,3.64111 -1.1753,2.07405 -1.1753,4.74727 v 0 q 0,4.30942 2.8346,6.63696 2.8114,2.3045 7.5357,3.80243 4.7472,1.49793 10.2089,3.31848 v 0 q 5.8074,1.65924 11.8682,3.41066 6.0608,1.72838 11.1077,4.4016 5.0699,2.65018 8.1349,7.21309 3.065,4.56291 3.065,12.0295 v 0 q 0,6.95959 -2.6502,12.09863 -2.6502,5.16208 -7.5357,8.48056 -4.9086,3.31849 -11.4534,4.88555 -6.5678,1.56706 -14.357,1.56706 z m 68.6971,-1.98187 h -14.6105 V 346.00812 h 14.6105 v 43.64725 h 1.1523 q 3.3185,-4.47073 7.4666,-7.30527 4.1481,-2.81149 9.218,-4.21723 5.0468,-1.42879 11.0385,-1.42879 v 0 q 8.2962,0 14.5184,2.83453 6.2222,2.81149 9.7711,9.12583 3.572,6.29129 3.572,17.07635 v 0 60.23967 h -14.5875 v -58.23475 q 0,-5.48471 -1.4288,-8.96451 -1.4058,-3.4798 -3.8024,-5.48471 -2.4198,-1.98188 -5.8074,-2.8115 -3.4107,-0.82962 -7.5588,-0.82962 v 0 q -6.1299,0 -11.6146,2.90368 -5.4617,2.90367 -8.7111,8.45752 -3.2263,5.55384 -3.2263,13.68873 v 0 z m 114.649,1.98187 v 0 q -13.2739,0 -22.3076,-4.88554 -9.0567,-4.88555 -13.7809,-15.02535 -4.7242,-10.11676 -4.7242,-25.71824 v 0 q 0,-15.76279 4.7242,-25.78737 4.7242,-10.04762 13.7809,-14.93317 9.0337,-4.90858 22.3076,-4.90858 v 0 q 13.2739,0 22.3076,4.90858 9.0566,4.88555 13.6887,14.93317 4.6551,10.02458 4.6551,25.78737 v 0 q 0,15.60148 -4.6551,25.71824 -4.6321,10.1398 -13.6887,15.02535 -9.0337,4.88554 -22.3076,4.88554 z m 0,-12.25995 v 0 q 8.4575,0 14.1035,-3.31848 5.6461,-3.31848 8.5497,-10.37026 2.9037,-7.05177 2.9037,-17.83684 v 0 -3.66415 q 0,-10.94638 -2.9037,-17.90598 -2.9036,-6.98264 -8.5497,-10.30112 -5.646,-3.31848 -14.1035,-3.31848 v 0 q -8.4575,0 -14.1957,3.31848 -5.7152,3.31848 -8.5267,10.30112 -2.8345,6.9596 -2.8345,17.90598 v 0 3.66415 q 0,10.78507 2.8345,17.83684 2.8115,7.05178 8.5267,10.37026 5.7382,3.31848 14.1957,3.31848 z m 79.1366,12.25995 v 0 q -6.7983,0 -10.6007,-2.558 -3.8255,-2.58104 -5.4848,-6.79828 -1.6592,-4.24028 -1.6592,-9.05669 v 0 -58.55738 h -11.2921 v -12.28299 h 11.6147 l 2.6732,-24.40467 h 11.6147 v 24.40467 h 16.4081 v 12.28299 h -16.4081 v 56.4142 q 0,4.1481 1.4749,6.22215 1.4979,2.07405 5.646,2.07405 v 0 h 9.2872 v 9.60977 q -1.6593,0.82962 -3.9638,1.33661 -2.3275,0.48395 -4.7472,0.89876 -2.3967,0.41481 -4.5629,0.41481 z"
       fill="#87deaa"
       transform="matrix(0.54158126,0,0,0.54158126,0,72.701312)"
       id="path8" />
  </g>
</svg>
